<?xml version="1.0" encoding="utf-8"?>
<!-- Generator: Adobe Illustrator 24.3.0, SVG Export Plug-In . SVG Version: 6.00 Build 0)  -->
<svg version="1.1" id="Layer_1" xmlns="http://www.w3.org/2000/svg" xmlns:xlink="http://www.w3.org/1999/xlink" x="0px" y="0px"
	 viewBox="0 0 197.9 174.6" style="enable-background:new 0 0 197.9 174.6;" xml:space="preserve">
<style type="text/css">
	.st0{fill:#FFFFFF;}
</style>
<g>
	<path class="st0" d="M196.3,156.8l-10.8-18.6h-13.8l14.1,24.5H61.1l14.1-24.5H61.3l-21.1,36.5H186
		C195.2,174.6,200.9,164.7,196.3,156.8z"/>
	<polygon class="st0" points="133.4,156.6 147.2,156.6 109.4,91 102.4,103 	"/>
	<polygon class="st0" points="120,60.5 113.1,48.5 75.2,114.1 89.1,114.1 	"/>
	<path class="st0" d="M84.9,36.6L99,12.1l62.4,108.1h-0.1h-28.2l6.9,12h42h0.1L109.3,6C104.7-2,93.3-2,88.7,6L77.9,24.6L84.9,36.6z"
		/>
	<polygon class="st0" points="43.5,120.1 36.6,132.1 112.4,132.1 105.4,120.1 	"/>
	<path class="st0" d="M12.1,162.6L74.5,54.6L88.6,79l6.9-12l-21-36.4L1.6,156.8c-4.6,7.9,1.1,17.9,10.3,17.9h21.4l6.9-12H12.1z"/>
</g>
</svg>
